HIERARCHY
ROOT root
{
	OFFSET	0	13.1	24.9
	CHANNELS 6  Xposition Yposition Zposition Xrotation Yrotation Zrotation
	JOINT spine_1
	{
		OFFSET	0	9.99999	0
		CHANNELS 3  Xrotation Yrotation Zrotation
		JOINT spine_2
		{
			OFFSET	0	112	-10
			CHANNELS 3  Xrotation Yrotation Zrotation
			JOINT spine_3
			{
				OFFSET	0	206.5	19.3
				CHANNELS 3  Xrotation Yrotation Zrotation
				JOINT spine_4
				{
					OFFSET	0	110.4	14.6
					CHANNELS 3  Xrotation Yrotation Zrotation
					JOINT neck_1
					{
						OFFSET	0	71.8	-50.3
						CHANNELS 3  Xrotation Yrotation Zrotation
						JOINT neck_2
						{
							OFFSET	0	86.2	-25.8
							CHANNELS 3  Xrotation Yrotation Zrotation
							JOINT head_ee
							{
								OFFSET	0	179.8	-8.7
								CHANNELS 3  Xrotation Yrotation Zrotation
								End Site
								{
									OFFSET	1	0	0
								}
							}
						}
					}
					JOINT left_clavicle
					{
						OFFSET	-43.2	22.4	-70.8
						CHANNELS 3  Xrotation Yrotation Zrotation
						JOINT left_shoulder
						{
							OFFSET	-93.9	-5.79999	48.7
							CHANNELS 3  Xrotation Yrotation Zrotation
							JOINT left_elbow
							{
								OFFSET	-291.4	-30.8	15.2
								CHANNELS 3  Xrotation Yrotation Zrotation
								JOINT left_lowarm_twist
								{
									OFFSET	-110.7	-3.89999	13.6
									CHANNELS 3  Xrotation Yrotation Zrotation
									JOINT left_hand
									{
										OFFSET	-110.7	-3.89999	13.6
										CHANNELS 3  Xrotation Yrotation Zrotation
										JOINT left_ee
										{
											OFFSET	-80.8	-5.10001	12.1
											CHANNELS 3  Xrotation Yrotation Zrotation
											End Site
											{
												OFFSET	1	0	0
											}
										}
									}
								}
							}
						}
					}
					JOINT right_clavicle
					{
						OFFSET	43.2	22.4	-70.8
						CHANNELS 3  Xrotation Yrotation Zrotation
						JOINT right_shoulder
						{
							OFFSET	93.9	-5.79999	48.7
							CHANNELS 3  Xrotation Yrotation Zrotation
							JOINT right_elbow
							{
								OFFSET	291.4	-30.8	15.2
								CHANNELS 3  Xrotation Yrotation Zrotation
								JOINT right_lowarm_twist
								{
									OFFSET	110.7	-3.89999	13.6
									CHANNELS 3  Xrotation Yrotation Zrotation
									JOINT right_hand
									{
										OFFSET	110.7	-3.89999	13.6
										CHANNELS 3  Xrotation Yrotation Zrotation
										JOINT right_ee
										{
											OFFSET	80.8	-5.10001	12.1
											CHANNELS 3  Xrotation Yrotation Zrotation
											End Site
											{
												OFFSET	1	0	0
											}
										}
									}
								}
							}
						}
					}
				}
			}
		}
	}
	JOINT left_hip
	{
		OFFSET	-82.8	-127.5	0.300001
		CHANNELS 3  Xrotation Yrotation Zrotation
		JOINT left_knee
		{
			OFFSET	-28.2	-396.7	2.2
			CHANNELS 3  Xrotation Yrotation Zrotation
			JOINT left_ankle
			{
				OFFSET	-11.7	-411.3	35.4
				CHANNELS 3  Xrotation Yrotation Zrotation
				JOINT left_toes
				{
					OFFSET	0	-60	-88.6
					CHANNELS 3  Xrotation Yrotation Zrotation
					JOINT left_foot_ee
					{
						OFFSET	-22.5	-16.5	-42.2
						CHANNELS 3  Xrotation Yrotation Zrotation
						End Site
						{
							OFFSET	1	0	0
						}
					}
				}
			}
		}
	}
	JOINT right_hip
	{
		OFFSET	82.8	-127.5	0.300001
		CHANNELS 3  Xrotation Yrotation Zrotation
		JOINT right_knee
		{
			OFFSET	28.2	-396.7	2.2
			CHANNELS 3  Xrotation Yrotation Zrotation
			JOINT right_ankle
			{
				OFFSET	11.7	-411.3	35.4
				CHANNELS 3  Xrotation Yrotation Zrotation
				JOINT right_toes
				{
					OFFSET	0	-60	-88.6
					CHANNELS 3  Xrotation Yrotation Zrotation
					JOINT right_foot_ee
					{
						OFFSET	22.5	-16.5	-42.2
						CHANNELS 3  Xrotation Yrotation Zrotation
						End Site
						{
							OFFSET	1	0	0
						}
					}
				}
			}
		}
	}
}
MOTION
Frames: 16
Frame Time: 0.02
2841.28 655.866 -1359.01 -1.53421 60.9658 8.5406 0.944083 -0.100998 -1.58226 0.945476 -0.000122957 -1.58548 0.945768 0.307555 -1.55537 0.942397 0.058085 -1.58442 0.492286 10.3969 -1.46835 0.826153 19.6847 -0.598999 -0.0 0.0 -0.0 5.12189 4.31883 10.0038 -30.5338 -37.1932 66.5543 0.281609 -7.94174 0.0195482 -21.3076 -1.21613 2.42227 2.29969 -14.417 9.35439 -0.0 0.0 -0.0 9.96845 25.6593 -18.8293 8.46023 -4.83438 -55.8566 2.33328 49.1275 -1.06659 67.6856 2.50382 7.76929 3.10328 0.279811 -21.1179 0.0 0.0 0.0 35.3135 12.9617 -8.93666 -14.505 0.320614 2.19695 9.83052 -9.42298 -1.46445 -38.7542 0.0 0.0 -0.0 0.0 -0.0 -11.2376 4.51366 -16.1791 -9.87396 -0.278918 -1.4878 36.5531 21.9182 5.11189 -17.7194 0.0 0.0 0.0 0.0 0.0 
2817.12 658.394 -1366.48 -3.01212 60.7943 9.8201 1.33933 -0.106669 -1.65823 1.34086 -0.000950103 -1.66166 1.34105 0.310276 -1.63244 1.33733 0.0486055 -1.66095 -0.0174086 10.5451 -1.46755 0.305643 20.006 -0.505954 -0.0 0.0 -0.0 5.08317 4.17908 9.92865 -24.9119 -36.6463 68.4723 0.279444 -7.88144 0.0192501 -22.1346 -1.28094 2.50608 2.38224 -12.0019 11.0162 -0.0 0.0 -0.0 9.8603 24.9685 -18.6585 6.3929 -5.20406 -56.0182 2.17989 47.1926 -0.952295 67.2773 2.46285 7.73664 3.43408 0.608632 -23.3825 0.0 0.0 0.0 34.439 13.2139 -8.68182 -14.4203 0.320366 2.18395 9.8391 -10.0431 -1.47073 -38.5524 0.0 0.0 -0.0 0.0 -0.0 -10.6085 6.2016 -15.2694 -11.8214 -0.303436 -1.7856 37.3179 21.307 5.1598 -18.0667 0.0 0.0 0.0 0.0 0.0 
2801.23 661.984 -1373.12 -3.33848 60.1979 10.1156 1.41178 -0.120219 -1.66866 1.41333 -0.0138098 -1.67293 1.41387 0.297657 -1.6463 1.41009 0.0339577 -1.67264 -1.22769 10.6364 -2.11565 -0.919444 20.8183 -0.996396 -0.0 0.0 -0.0 4.91088 6.63143 9.65163 -26.0106 -37.231 67.7105 0.352762 -9.91243 0.0305912 -22.8856 -1.34085 2.58137 2.11601 -10.58 9.82737 -0.0 0.0 -0.0 10.3571 24.8276 -19.7861 3.91188 -4.58072 -55.4699 2.17918 47.1833 -0.951776 67.7213 2.50742 7.77213 3.47072 0.939399 -23.5156 0.0 0.0 0.0 33.7818 13.0295 -8.81058 -15.9116 0.321918 2.41274 12.7956 -9.19337 -1.8815 -39.4008 0.0 0.0 -0.0 0.0 -0.0 -10.1842 6.62 -15.0521 -13.1475 -0.314333 -1.98877 36.5572 20.8543 5.06506 -18.4198 0.0 0.0 0.0 0.0 0.0 
2781.64 662.629 -1382.15 -3.86514 60.1536 11.1999 1.59065 -0.00599224 -1.80585 1.59246 0.108912 -1.80258 1.58905 0.43707 -1.75219 1.5848 0.154906 -1.79921 -1.84874 10.6394 -3.26056 -1.51274 21.7851 -2.10774 -0.0 0.0 -0.0 4.65583 6.81404 9.19036 -28.117 -37.8656 67.223 0.456727 -12.7487 0.0510233 -22.9184 -1.34349 2.58464 1.81242 -9.17785 8.36678 -0.0 0.0 -0.0 10.0592 22.1056 -19.37 1.27336 -3.244 -55.9455 2.19491 47.3886 -0.96333 69.2686 2.66483 7.89307 3.31862 0.88482 -22.4287 0.0 0.0 0.0 33.3425 12.4792 -9.16452 -16.8776 0.319744 2.56095 17.4281 -9.24585 -2.51111 -38.8559 0.0 0.0 -0.0 0.0 -0.0 -10.5164 6.67222 -14.9027 -13.2773 -0.315147 -2.00867 36.4474 21.2673 5.07214 -18.757 0.0 0.0 0.0 0.0 0.0 
2755.52 667.004 -1395.09 -1.78948 60.7933 9.71795 1.61737 -0.323536 -1.83066 1.61921 -0.206411 -1.84753 1.62605 0.133956 -1.85419 1.62129 -0.160508 -1.85208 -3.00786 10.5331 -3.17696 -2.74143 21.6159 -1.81259 -0.0 0.0 -0.0 4.60062 6.1257 9.07486 -22.2026 -35.9567 69.6541 0.31397 -8.84065 0.0242707 -23.6269 -1.40095 2.65492 2.2811 -10.0489 11.1943 -0.0 0.0 -0.0 10.2817 22.483 -19.8369 0.362974 -7.42267 -57.2199 2.07933 45.8422 -0.879325 66.5347 2.38895 7.67653 3.53676 0.546239 -24.161 0.0 0.0 0.0 30.684 12.2944 -9.30332 -16.306 0.321332 2.47327 19.089 -8.94582 -2.72423 -38.858 0.0 0.0 -0.0 0.0 -0.0 -7.72261 7.65436 -13.3276 -21.2993 -0.277934 -3.23793 38.3319 20.8858 5.2385 -18.4084 0.0 0.0 0.0 0.0 0.0 
2709.16 675.115 -1411.78 4.18768 60.9545 3.13996 1.33514 -0.375178 -1.59433 1.33651 -0.27298 -1.61496 1.3445 0.034103 -1.63751 1.34083 -0.224905 -1.62235 -3.90852 10.8397 -2.2369 -3.71603 21.5259 -0.616364 -0.0 0.0 -0.0 5.0812 1.77042 9.8703 -20.5769 -34.9685 71.3452 0.285497 -8.04996 0.020089 -22.8413 -1.33729 2.57696 1.99694 -9.11188 9.65614 -0.0 0.0 -0.0 10.1047 20.9215 -19.5684 -3.02706 -8.13835 -59.5388 1.79842 41.6935 -0.684883 63.1211 2.05954 7.38819 2.76451 -2.15673 -19.6611 0.0 0.0 0.0 23.8091 14.1781 -7.77591 -16.528 0.320819 2.50731 27.1593 -9.47245 -3.71859 -37.7225 0.0 0.0 -0.0 0.0 -0.0 -6.57379 12.7989 -11.0547 -31.36 0.0104245 -4.75304 35.557 23.928 5.10624 -18.9149 0.0 0.0 0.0 0.0 0.0 
2692.55 677.005 -1416.68 4.72576 61.253 2.62722 1.46481 -0.483696 -1.86831 1.46668 -0.363852 -1.89529 1.47907 -0.00726832 -1.92988 1.47401 -0.311909 -1.90453 -4.79991 11.1013 -1.08888 -4.67824 21.2204 0.773134 -0.0 0.0 -0.0 5.38182 -0.926812 10.3802 -15.0972 -36.1401 69.2146 0.46922 -13.0855 0.053816 -22.2779 -1.2923 2.52051 1.96759 -8.67403 9.64544 -0.0 0.0 -0.0 9.54151 20.5107 -18.3407 -5.49581 -7.60115 -60.4157 1.7807 41.4119 -0.673127 61.7642 1.93348 7.26824 2.77682 -1.35322 -19.4362 0.0 0.0 0.0 22.0958 14.7284 -7.52768 -16.9977 0.319299 2.57936 29.1088 -11.9555 -3.99027 -37.5657 0.0 0.0 -0.0 0.0 -0.0 -5.99787 12.2987 -11.3767 -32.7967 0.0731747 -4.96455 35.1651 21.859 4.96804 -18.7061 0.0 0.0 0.0 0.0 0.0 
2684.28 675.314 -1423.96 5.36413 60.5367 1.3925 1.11758 -0.334507 -1.4573 1.11873 -0.241108 -1.47563 1.12526 0.045061 -1.49451 1.12219 -0.191508 -1.48288 -4.99101 11.0845 -0.677777 -4.88729 20.9014 1.22487 -0.0 0.0 -0.0 5.48477 -3.96973 10.4837 -12.3287 -36.6926 66.7474 0.493712 -13.7433 0.0594981 -22.3187 -1.29553 2.5246 2.11111 -8.49234 10.7083 -0.0 0.0 -0.0 9.8 20.8417 -18.8923 -6.05867 -7.91652 -61.4268 1.71777 40.3921 -0.631925 62.35 1.98756 7.32039 2.58892 -1.3994 -18.1297 0.0 0.0 0.0 20.9527 14.9664 -7.21305 -17.3129 0.317948 2.62771 31.6188 -10.9886 -4.24168 -36.7928 0.0 0.0 -0.0 0.0 -0.0 -5.48663 14.0004 -10.4763 -32.6939 0.0685073 -4.94947 36.6175 23.0322 5.17068 -18.8419 0.0 0.0 0.0 0.0 0.0 
2667.08 676.397 -1429.91 6.00584 60.45 0.428276 0.797989 -0.259152 -1.46976 0.799176 -0.165113 -1.48326 0.803841 0.129486 -1.4868 0.800772 -0.106924 -1.48859 -3.7272 10.6288 -0.168596 -3.58957 19.5457 1.46328 -0.0 0.0 -0.0 5.74401 -3.79706 11.0132 -12.4383 -36.5123 66.353 0.52116 -14.476 0.0661895 -23.242 -1.36962 2.61683 2.09478 -8.55253 10.57 -0.0 0.0 -0.0 9.48161 19.3362 -18.2932 -6.18158 -6.45829 -61.9349 1.45687 35.8155 -0.470797 61.8372 1.9402 7.27478 2.55737 -0.975758 -17.7423 0.0 0.0 0.0 19.0455 14.8143 -6.32526 -16.8992 0.319667 2.56426 34.4265 -9.07579 -4.48859 -37.2214 0.0 0.0 -0.0 0.0 -0.0 -5.92929 12.6128 -9.76112 -33.616 0.111335 -5.08447 35.3487 22.3984 5.01144 -18.3347 0.0 0.0 0.0 0.0 0.0 
2646.02 680.77 -1438.02 6.79124 60.3719 -0.606724 0.5695 -0.172868 -1.41313 0.570607 -0.0826054 -1.42127 0.573044 0.203907 -1.40899 0.570274 -0.021152 -1.42351 -3.20996 10.159 0.100812 -3.07195 18.4225 1.59513 -0.0 0.0 -0.0 5.79243 -2.72494 11.144 -12.8347 -37.5786 66.1717 0.514518 -14.2991 0.0645391 -24.9945 -1.51431 2.78857 2.2268 -8.49613 11.5022 -0.0 0.0 -0.0 9.50633 18.3741 -18.413 -7.12511 -8.83176 -62.5439 1.22681 31.2869 -0.343548 61.8015 1.93692 7.27159 2.42685 -1.4342 -17.0092 0.0 0.0 0.0 17.3976 14.7478 -5.87104 -17.6709 0.316092 2.6826 36.8742 -8.91978 -4.72134 -35.4561 0.0 0.0 -0.0 0.0 -0.0 -1.75018 9.66764 -10.1285 -34.464 0.152636 -5.20801 36.6845 21.9432 5.12614 -18.7192 0.0 0.0 0.0 0.0 0.0 
2633.85 687.395 -1451.83 8.74573 60.344 -1.23093 0.124683 -0.201837 -1.55615 0.126025 -0.102418 -1.56584 0.129461 0.225505 -1.5529 0.126096 -0.022545 -1.56902 -3.69884 10.0713 0.60824 -3.58758 17.9275 2.17751 -0.0 0.0 -0.0 6.01245 -5.24904 11.5094 -15.4201 -37.2086 63.1358 0.726498 -19.7931 0.126751 -23.3279 -1.37659 2.62535 1.83422 -8.28864 8.89994 -0.0 0.0 -0.0 9.75553 19.3602 -18.902 -8.90655 -7.92504 -63.5284 1.04164 27.293 -0.252901 63.1591 2.06311 7.39151 1.42094 -0.71671 -9.82346 0.0 0.0 0.0 15.7996 13.1907 -7.68721 -18.9824 0.306359 2.88359 35.7309 -9.6372 -4.62795 -33.4391 0.0 0.0 -0.0 0.0 -0.0 0.456461 9.1977 -11.8518 -34.9314 0.17618 -5.27584 35.1091 23.3814 5.03273 -19.1307 0.0 0.0 0.0 0.0 0.0 
2615.28 691.491 -1460.71 6.59333 60.9497 0.966097 0.470014 -0.161388 -1.70962 0.471638 -0.05229 -1.71642 0.473778 0.295729 -1.69157 0.469785 0.0249076 -1.71703 -4.46631 9.54994 1.03004 -4.39254 16.7377 2.63177 -0.0 0.0 -0.0 6.8569 -1.43023 13.3012 -12.1371 -36.9702 61.5087 0.692147 -18.9253 0.115363 -24.9946 -1.51431 2.78858 2.06915 -9.2441 10.0931 -0.0 0.0 -0.0 9.56874 17.9591 -18.5781 -8.97955 -11.2795 -64.6654 0.831948 22.3975 -0.164714 59.7383 1.75068 7.08373 1.76305 1.97046 -11.0659 0.0 0.0 0.0 15.0982 11.7373 -7.98752 -19.1115 0.305153 2.90336 39.0124 -10.8657 -4.96078 -30.7697 0.0 0.0 -0.0 0.0 -0.0 2.12961 7.01716 -10.7833 -35.6411 0.212992 -5.37847 34.6735 23.0474 4.97103 -18.4663 0.0 0.0 0.0 0.0 0.0 
2605.76 694.28 -1470.46 5.51852 61.1945 2.43259 0.861984 -0.399251 -1.75823 0.863659 -0.28658 -1.78007 0.873151 0.0664742 -1.80175 0.868687 -0.218867 -1.78965 -4.43278 9.91225 1.26393 -4.35352 17.2228 2.92631 -0.0 0.0 -0.0 7.13911 -4.66578 13.8339 -12.1236 -37.1738 59.9264 0.630452 -17.3441 0.0961588 -24.9534 -1.51085 2.78459 1.88389 -8.76125 9.03521 -0.0 0.0 -0.0 9.38464 17.4243 -18.2019 -9.57017 -10.4712 -65.8176 0.681955 18.6661 -0.112079 58.6705 1.657 6.98394 1.32412 3.52104 -7.43822 0.0 0.0 0.0 14.514 11.0162 -8.81607 -19.3126 0.303184 2.93416 37.8718 -10.9166 -4.85886 -29.4989 0.0 0.0 -0.0 0.0 -0.0 3.36881 5.4822 -11.1525 -36.6343 0.266642 -5.52133 33.2087 23.223 4.82162 -19.4055 0.0 0.0 0.0 0.0 0.0 
2577.83 697.399 -1483.75 13.2546 61.4181 -5.11693 -0.358656 -0.400589 -1.54963 -0.35737 -0.301183 -1.57197 -0.348147 0.0456301 -1.59991 -0.351659 -0.207586 -1.58704 -4.14202 10.1977 1.95735 -4.05279 17.1838 3.64515 -0.0 0.0 -0.0 6.894 -10.126 13.158 -11.8663 -37.7922 58.6463 0.757923 -20.5788 0.137595 -23.0541 -1.35443 2.59816 1.4265 -7.44586 6.48361 -0.0 0.0 -0.0 9.05042 14.6797 -17.61 -11.6882 -6.75908 -66.1485 0.779118 21.1041 -0.145136 59.2594 1.70844 7.03919 0.898031 3.16767 -4.70279 0.0 0.0 0.0 8.49781 14.3836 -8.7543 -19.7548 0.298476 3.00184 36.3168 -12.6239 -4.75657 -28.4308 0.0 0.0 -0.0 0.0 -0.0 11.7629 1.66782 -8.45384 -36.1371 0.239474 -5.44993 31.6856 22.1788 4.60605 -20.6426 0.0 0.0 0.0 0.0 0.0 
2563.82 701.934 -1486.33 8.06525 59.7649 -0.172797 0.507337 -0.239968 -1.7768 0.509084 -0.126438 -1.78846 0.513689 0.236409 -1.77727 0.509284 -0.0471985 -1.7923 -5.17088 9.91176 1.06842 -5.1124 17.455 2.82662 -0.0 0.0 -0.0 8.19424 -5.19423 16.0131 -11.774 -36.2764 56.7739 0.690671 -18.8878 0.114885 -26.7214 -1.66197 2.95343 1.28583 -7.67236 5.43246 -0.0 0.0 -0.0 8.96556 13.1363 -17.4901 -13.0828 -7.06189 -65.8152 0.64292 17.6659 -0.0999089 57.3158 1.54087 6.85486 0.845979 5.85443 -3.2256 0.0 0.0 0.0 9.53026 14.7159 -9.00922 -19.9283 0.296486 3.02838 37.2136 -10.5132 -4.78831 -27.9132 0.0 0.0 -0.0 0.0 -0.0 13.4418 2.33105 -8.77098 -35.1861 0.189246 -5.31273 31.6241 23.6213 4.66285 -21.6115 0.0 0.0 0.0 0.0 0.0 
2555.61 700.583 -1489.42 7.07187 58.7772 0.423329 0.326972 -0.399326 -1.6574 0.328452 -0.293067 -1.67944 0.337815 0.0563861 -1.70388 0.333827 -0.213379 -1.69141 -4.33977 10.6426 1.32435 -4.24465 18.508 3.0945 -0.0 0.0 -0.0 7.00435 -7.12079 13.4977 -10.774 -38.9248 57.1562 0.791945 -21.4203 0.149787 -25.809 -1.58333 2.86688 0.887091 -6.85538 3.08029 -0.0 0.0 -0.0 8.85466 12.5089 -17.2719 -13.3695 -4.79282 -66.0508 0.631951 17.3828 -0.0966062 58.4982 1.64206 6.96767 0.753201 5.32916 -2.82048 0.0 0.0 0.0 10.218 16.1799 -9.32523 -21.2305 0.278985 3.22743 37.4494 -12.3511 -4.85639 -27.2438 0.0 0.0 -0.0 0.0 -0.0 13.3045 2.15479 -8.61019 -35.3468 0.197574 -5.33597 33.8334 26.2015 5.03975 -21.8259 0.0 0.0 0.0 0.0 0.0 
